<svg width="20" height="20" viewBox="0 0 20 20" fill="none" xmlns="http://www.w3.org/2000/svg">
<path d="M18.0001 8.19997C17.8597 7.97927 17.7424 7.7447 17.6501 7.49997C17.5695 7.24849 17.5192 6.98833 17.5001 6.72497C17.4891 6.08766 17.3047 5.46538 16.9667 4.92497C16.5534 4.43493 16.0148 4.06626 15.4084 3.8583C15.1609 3.76279 14.9236 3.64275 14.7001 3.49997C14.5061 3.33303 14.3276 3.14895 14.1667 2.94997C13.7839 2.43019 13.2648 2.02641 12.6667 1.7833C12.0612 1.64022 11.4286 1.66035 10.8334 1.84163C10.3018 1.96657 9.74838 1.96657 9.21673 1.84163C8.61114 1.6543 7.96617 1.63415 7.35006 1.7833C6.74596 2.02376 6.22077 2.42775 5.8334 2.94997C5.66723 3.14969 5.48313 3.3338 5.2834 3.49997C5.05984 3.64275 4.82254 3.76279 4.57506 3.8583C3.96564 4.06492 3.42402 4.43369 3.0084 4.92497C2.67919 5.46791 2.5035 6.09002 2.50007 6.72497C2.48094 6.98833 2.43059 7.24849 2.35007 7.49997C2.25671 7.73895 2.13945 7.96789 2.00007 8.1833C1.62434 8.71892 1.40243 9.34719 1.3584 9.99997C1.40541 10.647 1.62718 11.2691 2.00007 11.8C2.14266 12.0135 2.26011 12.2428 2.35007 12.4833C2.42257 12.7414 2.46452 13.0071 2.47507 13.275C2.48518 13.9124 2.66963 14.5349 3.0084 15.075C3.42173 15.565 3.96032 15.9337 4.56673 16.1416C4.81421 16.2371 5.0515 16.3572 5.27506 16.5C5.47479 16.6661 5.65889 16.8502 5.82506 17.05C6.20534 17.5722 6.72526 17.9766 7.32506 18.2166C7.5601 18.2882 7.80439 18.3247 8.05006 18.325C8.42641 18.313 8.80056 18.2627 9.16673 18.175C9.69746 18.0423 10.2527 18.0423 10.7834 18.175C11.3905 18.3551 12.0342 18.3724 12.6501 18.225C13.2499 17.985 13.7698 17.5806 14.1501 17.0583C14.3162 16.8586 14.5003 16.6745 14.7001 16.5083C14.9236 16.3655 15.1609 16.2455 15.4084 16.15C16.0148 15.942 16.5534 15.5733 16.9667 15.0833C17.3055 14.5432 17.4899 13.9207 17.5001 13.2833C17.5106 13.0154 17.5526 12.7497 17.6251 12.4916C17.7184 12.2526 17.8357 12.0237 17.9751 11.8083C18.3583 11.2777 18.5888 10.6523 18.6417 9.99997C18.5947 9.35294 18.3729 8.73082 18.0001 8.19997ZM13.9251 8.92497L9.7584 13.0916C9.68093 13.1697 9.58876 13.2317 9.48721 13.274C9.38566 13.3163 9.27674 13.3381 9.16673 13.3381C9.05672 13.3381 8.9478 13.3163 8.84625 13.274C8.7447 13.2317 8.65253 13.1697 8.57506 13.0916L6.07506 10.5916C5.99737 10.5139 5.93573 10.4217 5.89368 10.3202C5.85163 10.2187 5.82999 10.1098 5.82999 9.99997C5.82999 9.77805 5.91815 9.56522 6.07506 9.4083C6.23198 9.25138 6.44481 9.16322 6.66673 9.16322C6.88865 9.16322 7.10148 9.25138 7.2584 9.4083L9.16673 11.325L12.7417 7.74163C12.8987 7.58471 13.1115 7.49656 13.3334 7.49656C13.5553 7.49656 13.7681 7.58471 13.9251 7.74163C14.082 7.89855 14.1701 8.11138 14.1701 8.3333C14.1701 8.55522 14.082 8.76805 13.9251 8.92497Z" fill="white"/>
</svg>
